<svg width="26" height="26" viewBox="0 0 26 26" fill="none" xmlns="http://www.w3.org/2000/svg">
<path fill-rule="evenodd" clip-rule="evenodd" d="M13 26C20.1797 26 26 20.1797 26 13C26 5.8203 20.1797 0 13 0C5.8203 0 0 5.8203 0 13C0 20.1797 5.8203 26 13 26ZM7.42535 17.3599C7.42535 18.0287 7.95416 18.5714 8.62147 18.5714C8.97402 18.5714 9.27619 18.4452 9.49024 18.218L12.9779 14.7099L16.4907 18.218C16.7048 18.4326 17.0069 18.5714 17.3595 18.5714C18.0268 18.5714 18.5556 18.0287 18.5556 17.3599C18.5556 17.0192 18.4297 16.7416 18.2031 16.5018L14.7028 12.9936L18.2157 9.46023C18.4549 9.22046 18.5682 8.95546 18.5682 8.62736C18.5682 7.95853 18.0394 7.42852 17.3595 7.42852C17.0321 7.42852 16.7677 7.52948 16.5159 7.78186L12.9779 11.3027L9.46506 7.79448C9.25101 7.56733 8.97402 7.44114 8.62147 7.44114C7.95416 7.44114 7.42535 7.95853 7.42535 8.63998C7.42535 8.95546 7.55126 9.25832 7.77789 9.47285L11.2907 12.9936L7.77789 16.527C7.55126 16.7416 7.42535 17.0318 7.42535 17.3599Z" fill="white"/>
</svg>
