<svg width="32" height="21" viewBox="0 0 32 21" fill="none" xmlns="http://www.w3.org/2000/svg">
<path d="M30.2317 8.64877L30.2517 8.66818C30.2517 8.66815 30.2517 8.66818 30.2517 8.66818L31.7039 10.1205C32.0987 10.5154 32.0987 11.1555 31.7039 11.5503L23.4833 19.771C23.0951 20.1592 22.4697 20.1657 22.0736 19.7904L22.0536 19.771L16.2383 13.9557C16.1111 13.8285 15.9075 13.8242 15.7752 13.943L15.7618 13.9557L9.94663 19.771C9.55841 20.1592 8.933 20.1657 8.53687 19.7904L8.51692 19.771L0.296102 11.5502C-0.0987007 11.1554 -0.0987007 10.5153 0.296102 10.1204L1.74835 8.6682C2.14315 8.2734 2.78325 8.2734 3.17806 8.6682L8.99343 14.4836C9.12064 14.6108 9.32425 14.615 9.45656 14.4963L9.46999 14.4836L15.2851 8.66822C15.6733 8.27997 16.2987 8.27349 16.6948 8.64876L16.7148 8.66817C16.7148 8.66815 16.7148 8.66818 16.7148 8.66817L22.5301 14.4836C22.6573 14.6108 22.861 14.615 22.9933 14.4963L23.0067 14.4836L28.822 8.66821C29.2102 8.27996 29.8356 8.27349 30.2317 8.64877ZM25.5314 3.94803L25.9267 4.34328C26.3215 4.73809 26.3215 5.37819 25.9267 5.77299L24.1169 7.58276C23.9195 7.78016 23.5994 7.78016 23.402 7.58276L22.6494 6.83009C18.977 3.15776 13.023 3.15776 9.35069 6.83009L8.53618 7.64459C8.33878 7.84199 8.01873 7.84199 7.82133 7.64459L6.01156 5.83482C5.61675 5.44001 5.61675 4.79991 6.01156 4.40511L6.46863 3.94803C11.7327 -1.31601 20.2674 -1.31601 25.5314 3.94803Z" fill="white"/>
</svg>
